<?xml version="1.0" encoding="utf-8" standalone="no"?>
<!DOCTYPE svg PUBLIC "-//W3C//DTD SVG 1.1//EN"
  "http://www.w3.org/Graphics/SVG/1.1/DTD/svg11.dtd">
<svg xmlns:xlink="http://www.w3.org/1999/xlink" width="460.8pt" height="323.28pt" viewBox="0 0 460.8 323.28" xmlns="http://www.w3.org/2000/svg" version="1.1">
 <metadata>
  <rdf:RDF xmlns:dc="http://purl.org/dc/elements/1.1/" xmlns:cc="http://creativecommons.org/ns#" xmlns:rdf="http://www.w3.org/1999/02/22-rdf-syntax-ns#">
   <cc:Work>
    <dc:type rdf:resource="http://purl.org/dc/dcmitype/StillImage"/>
    <dc:date>2025-06-12T09:44:58.304744</dc:date>
    <dc:format>image/svg+xml</dc:format>
    <dc:creator>
     <cc:Agent>
      <dc:title>Matplotlib v3.9.2, https://matplotlib.org/</dc:title>
     </cc:Agent>
    </dc:creator>
   </cc:Work>
  </rdf:RDF>
 </metadata>
 <defs>
  <style type="text/css">*{stroke-linejoin: round; stroke-linecap: butt}</style>
 </defs>
 <g id="figure_1">
  <g id="patch_1">
   <path d="M 0 323.28 
L 460.8 323.28 
L 460.8 0 
L 0 0 
z
" style="fill: #ffffff"/>
  </g>
  <g id="axes_1">
   <g id="patch_2">
    <path d="M 111.6972 287.7192 
L 360.6228 287.7192 
L 360.6228 38.7936 
L 111.6972 38.7936 
z
" style="fill: #ffffff"/>
   </g>
   <g id="line2d_1">
    <path d="M 298.3914 163.2564 
L 290.053973 132.1407 
" clip-path="url(#paea967dc3e)" style="fill: none; stroke: #000000; stroke-linecap: square"/>
   </g>
   <g id="line2d_2">
    <path d="M 290.053973 132.1407 
L 267.2757 109.362427 
" clip-path="url(#paea967dc3e)" style="fill: none; stroke: #000000; stroke-linecap: square"/>
   </g>
   <g id="line2d_3">
    <path d="M 267.2757 109.362427 
L 236.16 101.025 
" clip-path="url(#paea967dc3e)" style="fill: none; stroke: #000000; stroke-linecap: square"/>
   </g>
   <g id="line2d_4">
    <path d="M 236.16 101.025 
L 205.0443 109.362427 
" clip-path="url(#paea967dc3e)" style="fill: none; stroke: #000000; stroke-linecap: square"/>
   </g>
   <g id="line2d_5">
    <path d="M 205.0443 109.362427 
L 182.266027 132.1407 
" clip-path="url(#paea967dc3e)" style="fill: none; stroke: #000000; stroke-linecap: square"/>
   </g>
   <g id="line2d_6">
    <path d="M 182.266027 132.1407 
L 173.9286 163.2564 
" clip-path="url(#paea967dc3e)" style="fill: none; stroke: #000000; stroke-linecap: square"/>
   </g>
   <g id="line2d_7">
    <path d="M 173.9286 163.2564 
L 182.266027 194.3721 
" clip-path="url(#paea967dc3e)" style="fill: none; stroke: #000000; stroke-linecap: square"/>
   </g>
   <g id="line2d_8">
    <path d="M 182.266027 194.3721 
L 205.0443 217.150373 
" clip-path="url(#paea967dc3e)" style="fill: none; stroke: #000000; stroke-linecap: square"/>
   </g>
   <g id="line2d_9">
    <path d="M 205.0443 217.150373 
L 236.16 225.4878 
" clip-path="url(#paea967dc3e)" style="fill: none; stroke: #000000; stroke-linecap: square"/>
   </g>
   <g id="line2d_10">
    <path d="M 236.16 225.4878 
L 267.2757 217.150373 
" clip-path="url(#paea967dc3e)" style="fill: none; stroke: #000000; stroke-linecap: square"/>
   </g>
   <g id="line2d_11">
    <path d="M 267.2757 217.150373 
L 290.053973 194.3721 
" clip-path="url(#paea967dc3e)" style="fill: none; stroke: #000000; stroke-linecap: square"/>
   </g>
   <g id="line2d_12">
    <path d="M 290.053973 194.3721 
L 298.3914 163.2564 
" clip-path="url(#paea967dc3e)" style="fill: none; stroke: #000000; stroke-linecap: square"/>
   </g>
   <g id="matplotlib.axis_1">
    <g id="xtick_1">
     <g id="line2d_13">
      <defs>
       <path id="m70a3dffa3a" d="M 0 0 
L 0 3.5 
" style="stroke: #000000; stroke-width: 0.8"/>
      </defs>
      <g>
       <use xlink:href="#m70a3dffa3a" x="111.6972" y="287.7192" style="stroke: #000000; stroke-width: 0.8"/>
      </g>
     </g>
     <g id="text_1">
      <!-- −2.0 -->
      <g transform="translate(99.555794 302.317638) scale(0.1 -0.1)">
       <defs>
        <path id="DejaVuSans-2212" d="M 678 2272 
L 4684 2272 
L 4684 1741 
L 678 1741 
L 678 2272 
z
" transform="scale(0.015625)"/>
        <path id="DejaVuSans-32" d="M 1228 531 
L 3431 531 
L 3431 0 
L 469 0 
L 469 531 
Q 828 903 1448 1529 
Q 2069 2156 2228 2338 
Q 2531 2678 2651 2914 
Q 2772 3150 2772 3378 
Q 2772 3750 2511 3984 
Q 2250 4219 1831 4219 
Q 1534 4219 1204 4116 
Q 875 4013 500 3803 
L 500 4441 
Q 881 4594 1212 4672 
Q 1544 4750 1819 4750 
Q 2544 4750 2975 4387 
Q 3406 4025 3406 3419 
Q 3406 3131 3298 2873 
Q 3191 2616 2906 2266 
Q 2828 2175 2409 1742 
Q 1991 1309 1228 531 
z
" transform="scale(0.015625)"/>
        <path id="DejaVuSans-2e" d="M 684 794 
L 1344 794 
L 1344 0 
L 684 0 
L 684 794 
z
" transform="scale(0.015625)"/>
        <path id="DejaVuSans-30" d="M 2034 4250 
Q 1547 4250 1301 3770 
Q 1056 3291 1056 2328 
Q 1056 1369 1301 889 
Q 1547 409 2034 409 
Q 2525 409 2770 889 
Q 3016 1369 3016 2328 
Q 3016 3291 2770 3770 
Q 2525 4250 2034 4250 
z
M 2034 4750 
Q 2819 4750 3233 4129 
Q 3647 3509 3647 2328 
Q 3647 1150 3233 529 
Q 2819 -91 2034 -91 
Q 1250 -91 836 529 
Q 422 1150 422 2328 
Q 422 3509 836 4129 
Q 1250 4750 2034 4750 
z
" transform="scale(0.015625)"/>
       </defs>
       <use xlink:href="#DejaVuSans-2212"/>
       <use xlink:href="#DejaVuSans-32" x="83.789062"/>
       <use xlink:href="#DejaVuSans-2e" x="147.412109"/>
       <use xlink:href="#DejaVuSans-30" x="179.199219"/>
      </g>
     </g>
    </g>
    <g id="xtick_2">
     <g id="line2d_14">
      <g>
       <use xlink:href="#m70a3dffa3a" x="142.8129" y="287.7192" style="stroke: #000000; stroke-width: 0.8"/>
      </g>
     </g>
     <g id="text_2">
      <!-- −1.5 -->
      <g transform="translate(130.671494 302.317638) scale(0.1 -0.1)">
       <defs>
        <path id="DejaVuSans-31" d="M 794 531 
L 1825 531 
L 1825 4091 
L 703 3866 
L 703 4441 
L 1819 4666 
L 2450 4666 
L 2450 531 
L 3481 531 
L 3481 0 
L 794 0 
L 794 531 
z
" transform="scale(0.015625)"/>
        <path id="DejaVuSans-35" d="M 691 4666 
L 3169 4666 
L 3169 4134 
L 1269 4134 
L 1269 2991 
Q 1406 3038 1543 3061 
Q 1681 3084 1819 3084 
Q 2600 3084 3056 2656 
Q 3513 2228 3513 1497 
Q 3513 744 3044 326 
Q 2575 -91 1722 -91 
Q 1428 -91 1123 -41 
Q 819 9 494 109 
L 494 744 
Q 775 591 1075 516 
Q 1375 441 1709 441 
Q 2250 441 2565 725 
Q 2881 1009 2881 1497 
Q 2881 1984 2565 2268 
Q 2250 2553 1709 2553 
Q 1456 2553 1204 2497 
Q 953 2441 691 2322 
L 691 4666 
z
" transform="scale(0.015625)"/>
       </defs>
       <use xlink:href="#DejaVuSans-2212"/>
       <use xlink:href="#DejaVuSans-31" x="83.789062"/>
       <use xlink:href="#DejaVuSans-2e" x="147.412109"/>
       <use xlink:href="#DejaVuSans-35" x="179.199219"/>
      </g>
     </g>
    </g>
    <g id="xtick_3">
     <g id="line2d_15">
      <g>
       <use xlink:href="#m70a3dffa3a" x="173.9286" y="287.7192" style="stroke: #000000; stroke-width: 0.8"/>
      </g>
     </g>
     <g id="text_3">
      <!-- −1.0 -->
      <g transform="translate(161.787194 302.317638) scale(0.1 -0.1)">
       <use xlink:href="#DejaVuSans-2212"/>
       <use xlink:href="#DejaVuSans-31" x="83.789062"/>
       <use xlink:href="#DejaVuSans-2e" x="147.412109"/>
       <use xlink:href="#DejaVuSans-30" x="179.199219"/>
      </g>
     </g>
    </g>
    <g id="xtick_4">
     <g id="line2d_16">
      <g>
       <use xlink:href="#m70a3dffa3a" x="205.0443" y="287.7192" style="stroke: #000000; stroke-width: 0.8"/>
      </g>
     </g>
     <g id="text_4">
      <!-- −0.5 -->
      <g transform="translate(192.902894 302.317638) scale(0.1 -0.1)">
       <use xlink:href="#DejaVuSans-2212"/>
       <use xlink:href="#DejaVuSans-30" x="83.789062"/>
       <use xlink:href="#DejaVuSans-2e" x="147.412109"/>
       <use xlink:href="#DejaVuSans-35" x="179.199219"/>
      </g>
     </g>
    </g>
    <g id="xtick_5">
     <g id="line2d_17">
      <g>
       <use xlink:href="#m70a3dffa3a" x="236.16" y="287.7192" style="stroke: #000000; stroke-width: 0.8"/>
      </g>
     </g>
     <g id="text_5">
      <!-- 0.0 -->
      <g transform="translate(228.208438 302.317638) scale(0.1 -0.1)">
       <use xlink:href="#DejaVuSans-30"/>
       <use xlink:href="#DejaVuSans-2e" x="63.623047"/>
       <use xlink:href="#DejaVuSans-30" x="95.410156"/>
      </g>
     </g>
    </g>
    <g id="xtick_6">
     <g id="line2d_18">
      <g>
       <use xlink:href="#m70a3dffa3a" x="267.2757" y="287.7192" style="stroke: #000000; stroke-width: 0.8"/>
      </g>
     </g>
     <g id="text_6">
      <!-- 0.5 -->
      <g transform="translate(259.324138 302.317638) scale(0.1 -0.1)">
       <use xlink:href="#DejaVuSans-30"/>
       <use xlink:href="#DejaVuSans-2e" x="63.623047"/>
       <use xlink:href="#DejaVuSans-35" x="95.410156"/>
      </g>
     </g>
    </g>
    <g id="xtick_7">
     <g id="line2d_19">
      <g>
       <use xlink:href="#m70a3dffa3a" x="298.3914" y="287.7192" style="stroke: #000000; stroke-width: 0.8"/>
      </g>
     </g>
     <g id="text_7">
      <!-- 1.0 -->
      <g transform="translate(290.439838 302.317638) scale(0.1 -0.1)">
       <use xlink:href="#DejaVuSans-31"/>
       <use xlink:href="#DejaVuSans-2e" x="63.623047"/>
       <use xlink:href="#DejaVuSans-30" x="95.410156"/>
      </g>
     </g>
    </g>
    <g id="xtick_8">
     <g id="line2d_20">
      <g>
       <use xlink:href="#m70a3dffa3a" x="329.5071" y="287.7192" style="stroke: #000000; stroke-width: 0.8"/>
      </g>
     </g>
     <g id="text_8">
      <!-- 1.5 -->
      <g transform="translate(321.555538 302.317638) scale(0.1 -0.1)">
       <use xlink:href="#DejaVuSans-31"/>
       <use xlink:href="#DejaVuSans-2e" x="63.623047"/>
       <use xlink:href="#DejaVuSans-35" x="95.410156"/>
      </g>
     </g>
    </g>
    <g id="xtick_9">
     <g id="line2d_21">
      <g>
       <use xlink:href="#m70a3dffa3a" x="360.6228" y="287.7192" style="stroke: #000000; stroke-width: 0.8"/>
      </g>
     </g>
     <g id="text_9">
      <!-- 2.0 -->
      <g transform="translate(352.671238 302.317638) scale(0.1 -0.1)">
       <use xlink:href="#DejaVuSans-32"/>
       <use xlink:href="#DejaVuSans-2e" x="63.623047"/>
       <use xlink:href="#DejaVuSans-30" x="95.410156"/>
      </g>
     </g>
    </g>
   </g>
   <g id="matplotlib.axis_2">
    <g id="ytick_1">
     <g id="line2d_22">
      <defs>
       <path id="mf67a2d3936" d="M 0 0 
L -3.5 0 
" style="stroke: #000000; stroke-width: 0.8"/>
      </defs>
      <g>
       <use xlink:href="#mf67a2d3936" x="111.6972" y="287.7192" style="stroke: #000000; stroke-width: 0.8"/>
      </g>
     </g>
     <g id="text_10">
      <!-- −2.0 -->
      <g transform="translate(80.414387 291.518419) scale(0.1 -0.1)">
       <use xlink:href="#DejaVuSans-2212"/>
       <use xlink:href="#DejaVuSans-32" x="83.789062"/>
       <use xlink:href="#DejaVuSans-2e" x="147.412109"/>
       <use xlink:href="#DejaVuSans-30" x="179.199219"/>
      </g>
     </g>
    </g>
    <g id="ytick_2">
     <g id="line2d_23">
      <g>
       <use xlink:href="#mf67a2d3936" x="111.6972" y="256.6035" style="stroke: #000000; stroke-width: 0.8"/>
      </g>
     </g>
     <g id="text_11">
      <!-- −1.5 -->
      <g transform="translate(80.414387 260.402719) scale(0.1 -0.1)">
       <use xlink:href="#DejaVuSans-2212"/>
       <use xlink:href="#DejaVuSans-31" x="83.789062"/>
       <use xlink:href="#DejaVuSans-2e" x="147.412109"/>
       <use xlink:href="#DejaVuSans-35" x="179.199219"/>
      </g>
     </g>
    </g>
    <g id="ytick_3">
     <g id="line2d_24">
      <g>
       <use xlink:href="#mf67a2d3936" x="111.6972" y="225.4878" style="stroke: #000000; stroke-width: 0.8"/>
      </g>
     </g>
     <g id="text_12">
      <!-- −1.0 -->
      <g transform="translate(80.414387 229.287019) scale(0.1 -0.1)">
       <use xlink:href="#DejaVuSans-2212"/>
       <use xlink:href="#DejaVuSans-31" x="83.789062"/>
       <use xlink:href="#DejaVuSans-2e" x="147.412109"/>
       <use xlink:href="#DejaVuSans-30" x="179.199219"/>
      </g>
     </g>
    </g>
    <g id="ytick_4">
     <g id="line2d_25">
      <g>
       <use xlink:href="#mf67a2d3936" x="111.6972" y="194.3721" style="stroke: #000000; stroke-width: 0.8"/>
      </g>
     </g>
     <g id="text_13">
      <!-- −0.5 -->
      <g transform="translate(80.414387 198.171319) scale(0.1 -0.1)">
       <use xlink:href="#DejaVuSans-2212"/>
       <use xlink:href="#DejaVuSans-30" x="83.789062"/>
       <use xlink:href="#DejaVuSans-2e" x="147.412109"/>
       <use xlink:href="#DejaVuSans-35" x="179.199219"/>
      </g>
     </g>
    </g>
    <g id="ytick_5">
     <g id="line2d_26">
      <g>
       <use xlink:href="#mf67a2d3936" x="111.6972" y="163.2564" style="stroke: #000000; stroke-width: 0.8"/>
      </g>
     </g>
     <g id="text_14">
      <!-- 0.0 -->
      <g transform="translate(88.794075 167.055619) scale(0.1 -0.1)">
       <use xlink:href="#DejaVuSans-30"/>
       <use xlink:href="#DejaVuSans-2e" x="63.623047"/>
       <use xlink:href="#DejaVuSans-30" x="95.410156"/>
      </g>
     </g>
    </g>
    <g id="ytick_6">
     <g id="line2d_27">
      <g>
       <use xlink:href="#mf67a2d3936" x="111.6972" y="132.1407" style="stroke: #000000; stroke-width: 0.8"/>
      </g>
     </g>
     <g id="text_15">
      <!-- 0.5 -->
      <g transform="translate(88.794075 135.939919) scale(0.1 -0.1)">
       <use xlink:href="#DejaVuSans-30"/>
       <use xlink:href="#DejaVuSans-2e" x="63.623047"/>
       <use xlink:href="#DejaVuSans-35" x="95.410156"/>
      </g>
     </g>
    </g>
    <g id="ytick_7">
     <g id="line2d_28">
      <g>
       <use xlink:href="#mf67a2d3936" x="111.6972" y="101.025" style="stroke: #000000; stroke-width: 0.8"/>
      </g>
     </g>
     <g id="text_16">
      <!-- 1.0 -->
      <g transform="translate(88.794075 104.824219) scale(0.1 -0.1)">
       <use xlink:href="#DejaVuSans-31"/>
       <use xlink:href="#DejaVuSans-2e" x="63.623047"/>
       <use xlink:href="#DejaVuSans-30" x="95.410156"/>
      </g>
     </g>
    </g>
    <g id="ytick_8">
     <g id="line2d_29">
      <g>
       <use xlink:href="#mf67a2d3936" x="111.6972" y="69.9093" style="stroke: #000000; stroke-width: 0.8"/>
      </g>
     </g>
     <g id="text_17">
      <!-- 1.5 -->
      <g transform="translate(88.794075 73.708519) scale(0.1 -0.1)">
       <use xlink:href="#DejaVuSans-31"/>
       <use xlink:href="#DejaVuSans-2e" x="63.623047"/>
       <use xlink:href="#DejaVuSans-35" x="95.410156"/>
      </g>
     </g>
    </g>
    <g id="ytick_9">
     <g id="line2d_30">
      <g>
       <use xlink:href="#mf67a2d3936" x="111.6972" y="38.7936" style="stroke: #000000; stroke-width: 0.8"/>
      </g>
     </g>
     <g id="text_18">
      <!-- 2.0 -->
      <g transform="translate(88.794075 42.592819) scale(0.1 -0.1)">
       <use xlink:href="#DejaVuSans-32"/>
       <use xlink:href="#DejaVuSans-2e" x="63.623047"/>
       <use xlink:href="#DejaVuSans-30" x="95.410156"/>
      </g>
     </g>
    </g>
   </g>
   <g id="Quiver_1">
    <path d="M 297.489736 163.498 
L 291.32671 140.497274 
L 289.764983 141.882138 
L 290.053973 132.1407 
L 295.174965 140.432537 
L 293.130038 140.014074 
L 299.293064 163.0148 
L 297.489736 163.498 
" clip-path="url(#paea967dc3e)" style="fill: #00224e"/>
   </g>
   <g id="Quiver_2">
    <path d="M 289.39391 132.800764 
L 272.556209 115.963063 
L 271.896146 117.943254 
L 267.2757 109.362427 
L 275.856528 113.982872 
L 273.876337 114.642936 
L 290.714037 131.480636 
L 289.39391 132.800764 
" clip-path="url(#paea967dc3e)" style="fill: #013271"/>
   </g>
   <g id="Quiver_3">
    <path d="M 267.0341 110.26409 
L 244.033374 104.101064 
L 244.451837 106.145992 
L 236.16 101.025 
L 245.901438 100.736009 
L 244.516574 102.297737 
L 267.5173 108.460763 
L 267.0341 110.26409 
" clip-path="url(#paea967dc3e)" style="fill: #2f426d"/>
   </g>
   <g id="Quiver_4">
    <path d="M 236.4016 101.926664 
L 213.400874 108.08969 
L 214.785738 109.651417 
L 205.0443 109.362427 
L 213.336137 104.241435 
L 212.917674 106.286362 
L 235.9184 100.123336 
L 236.4016 101.926664 
" clip-path="url(#paea967dc3e)" style="fill: #48526c"/>
   </g>
   <g id="Quiver_5">
    <path d="M 205.704364 110.02249 
L 188.866663 126.860191 
L 190.846854 127.520254 
L 182.266027 132.1407 
L 186.886472 123.559872 
L 187.546536 125.540063 
L 204.384236 108.702363 
L 205.704364 110.02249 
" clip-path="url(#paea967dc3e)" style="fill: #5e636f"/>
   </g>
   <g id="Quiver_6">
    <path d="M 183.16769 132.3823 
L 177.004664 155.383026 
L 179.049592 154.964563 
L 173.9286 163.2564 
L 173.639609 153.514962 
L 175.201337 154.899826 
L 181.364363 131.8991 
L 183.16769 132.3823 
" clip-path="url(#paea967dc3e)" style="fill: #727374"/>
   </g>
   <g id="Quiver_7">
    <path d="M 174.830264 163.0148 
L 180.99329 186.015526 
L 182.555017 184.630662 
L 182.266027 194.3721 
L 177.145035 186.080263 
L 179.189962 186.498726 
L 173.026936 163.498 
L 174.830264 163.0148 
" clip-path="url(#paea967dc3e)" style="fill: #878478"/>
   </g>
   <g id="Quiver_8">
    <path d="M 182.92609 193.712036 
L 199.763791 210.549737 
L 200.423854 208.569546 
L 205.0443 217.150373 
L 196.463472 212.529928 
L 198.443663 211.869864 
L 181.605963 195.032164 
L 182.92609 193.712036 
" clip-path="url(#paea967dc3e)" style="fill: #9d9576"/>
   </g>
   <g id="Quiver_9">
    <path d="M 205.2859 216.24871 
L 228.286626 222.411736 
L 227.868163 220.366808 
L 236.16 225.4878 
L 226.418562 225.776791 
L 227.803426 224.215063 
L 204.8027 218.052037 
L 205.2859 216.24871 
" clip-path="url(#paea967dc3e)" style="fill: #b6a96f"/>
   </g>
   <g id="Quiver_10">
    <path d="M 235.9184 224.586136 
L 258.919126 218.42311 
L 257.534262 216.861383 
L 267.2757 217.150373 
L 258.983863 222.271365 
L 259.402326 220.226438 
L 236.4016 226.389464 
L 235.9184 224.586136 
" clip-path="url(#paea967dc3e)" style="fill: #cebc63"/>
   </g>
   <g id="Quiver_11">
    <path d="M 266.615636 216.49031 
L 283.453337 199.652609 
L 281.473146 198.992546 
L 290.053973 194.3721 
L 285.433528 202.952928 
L 284.773464 200.972737 
L 267.935764 217.810437 
L 266.615636 216.49031 
" clip-path="url(#paea967dc3e)" style="fill: #e7d150"/>
   </g>
   <g id="Quiver_12">
    <path d="M 289.15231 194.1305 
L 295.315336 171.129774 
L 293.270408 171.548237 
L 298.3914 163.2564 
L 298.680391 172.997838 
L 297.118663 171.612974 
L 290.955637 194.6137 
L 289.15231 194.1305 
" clip-path="url(#paea967dc3e)" style="fill: #fee838"/>
   </g>
   <g id="line2d_31">
    <defs>
     <path id="me64e5dd0b1" d="M 0 1.5 
C 0.397805 1.5 0.77937 1.341951 1.06066 1.06066 
C 1.341951 0.77937 1.5 0.397805 1.5 0 
C 1.5 -0.397805 1.341951 -0.77937 1.06066 -1.06066 
C 0.77937 -1.341951 0.397805 -1.5 0 -1.5 
C -0.397805 -1.5 -0.77937 -1.341951 -1.06066 -1.06066 
C -1.341951 -0.77937 -1.5 -0.397805 -1.5 0 
C -1.5 0.397805 -1.341951 0.77937 -1.06066 1.06066 
C -0.77937 1.341951 -0.397805 1.5 0 1.5 
z
" style="stroke: #000000"/>
    </defs>
    <g clip-path="url(#paea967dc3e)">
     <use xlink:href="#me64e5dd0b1" x="298.3914" y="163.2564" style="stroke: #000000"/>
    </g>
   </g>
   <g id="line2d_32">
    <g clip-path="url(#paea967dc3e)">
     <use xlink:href="#me64e5dd0b1" x="290.053973" y="132.1407" style="stroke: #000000"/>
    </g>
   </g>
   <g id="line2d_33">
    <g clip-path="url(#paea967dc3e)">
     <use xlink:href="#me64e5dd0b1" x="267.2757" y="109.362427" style="stroke: #000000"/>
    </g>
   </g>
   <g id="line2d_34">
    <g clip-path="url(#paea967dc3e)">
     <use xlink:href="#me64e5dd0b1" x="236.16" y="101.025" style="stroke: #000000"/>
    </g>
   </g>
   <g id="line2d_35">
    <g clip-path="url(#paea967dc3e)">
     <use xlink:href="#me64e5dd0b1" x="205.0443" y="109.362427" style="stroke: #000000"/>
    </g>
   </g>
   <g id="line2d_36">
    <g clip-path="url(#paea967dc3e)">
     <use xlink:href="#me64e5dd0b1" x="182.266027" y="132.1407" style="stroke: #000000"/>
    </g>
   </g>
   <g id="line2d_37">
    <g clip-path="url(#paea967dc3e)">
     <use xlink:href="#me64e5dd0b1" x="173.9286" y="163.2564" style="stroke: #000000"/>
    </g>
   </g>
   <g id="line2d_38">
    <g clip-path="url(#paea967dc3e)">
     <use xlink:href="#me64e5dd0b1" x="182.266027" y="194.3721" style="stroke: #000000"/>
    </g>
   </g>
   <g id="line2d_39">
    <g clip-path="url(#paea967dc3e)">
     <use xlink:href="#me64e5dd0b1" x="205.0443" y="217.150373" style="stroke: #000000"/>
    </g>
   </g>
   <g id="line2d_40">
    <g clip-path="url(#paea967dc3e)">
     <use xlink:href="#me64e5dd0b1" x="236.16" y="225.4878" style="stroke: #000000"/>
    </g>
   </g>
   <g id="line2d_41">
    <g clip-path="url(#paea967dc3e)">
     <use xlink:href="#me64e5dd0b1" x="267.2757" y="217.150373" style="stroke: #000000"/>
    </g>
   </g>
   <g id="line2d_42">
    <g clip-path="url(#paea967dc3e)">
     <use xlink:href="#me64e5dd0b1" x="290.053973" y="194.3721" style="stroke: #000000"/>
    </g>
   </g>
   <g id="patch_3">
    <path d="M 111.6972 287.7192 
L 111.6972 38.7936 
" style="fill: none; stroke: #000000; stroke-width: 0.8; stroke-linejoin: miter; stroke-linecap: square"/>
   </g>
   <g id="patch_4">
    <path d="M 360.6228 287.7192 
L 360.6228 38.7936 
" style="fill: none; stroke: #000000; stroke-width: 0.8; stroke-linejoin: miter; stroke-linecap: square"/>
   </g>
   <g id="patch_5">
    <path d="M 111.6972 287.7192 
L 360.6228 287.7192 
" style="fill: none; stroke: #000000; stroke-width: 0.8; stroke-linejoin: miter; stroke-linecap: square"/>
   </g>
   <g id="patch_6">
    <path d="M 111.6972 38.7936 
L 360.6228 38.7936 
" style="fill: none; stroke: #000000; stroke-width: 0.8; stroke-linejoin: miter; stroke-linecap: square"/>
   </g>
   <g id="text_19">
    <!-- 0 -->
    <g transform="translate(298.3914 163.2564) scale(0.1 -0.1)">
     <use xlink:href="#DejaVuSans-30"/>
    </g>
   </g>
   <g id="text_20">
    <!-- 1 -->
    <g transform="translate(290.053973 132.1407) scale(0.1 -0.1)">
     <use xlink:href="#DejaVuSans-31"/>
    </g>
   </g>
   <g id="text_21">
    <!-- 2 -->
    <g transform="translate(267.2757 109.362427) scale(0.1 -0.1)">
     <use xlink:href="#DejaVuSans-32"/>
    </g>
   </g>
   <g id="text_22">
    <!-- 3 -->
    <g transform="translate(236.16 101.025) scale(0.1 -0.1)">
     <defs>
      <path id="DejaVuSans-33" d="M 2597 2516 
Q 3050 2419 3304 2112 
Q 3559 1806 3559 1356 
Q 3559 666 3084 287 
Q 2609 -91 1734 -91 
Q 1441 -91 1130 -33 
Q 819 25 488 141 
L 488 750 
Q 750 597 1062 519 
Q 1375 441 1716 441 
Q 2309 441 2620 675 
Q 2931 909 2931 1356 
Q 2931 1769 2642 2001 
Q 2353 2234 1838 2234 
L 1294 2234 
L 1294 2753 
L 1863 2753 
Q 2328 2753 2575 2939 
Q 2822 3125 2822 3475 
Q 2822 3834 2567 4026 
Q 2313 4219 1838 4219 
Q 1578 4219 1281 4162 
Q 984 4106 628 3988 
L 628 4550 
Q 988 4650 1302 4700 
Q 1616 4750 1894 4750 
Q 2613 4750 3031 4423 
Q 3450 4097 3450 3541 
Q 3450 3153 3228 2886 
Q 3006 2619 2597 2516 
z
" transform="scale(0.015625)"/>
     </defs>
     <use xlink:href="#DejaVuSans-33"/>
    </g>
   </g>
   <g id="text_23">
    <!-- 4 -->
    <g transform="translate(205.0443 109.362427) scale(0.1 -0.1)">
     <defs>
      <path id="DejaVuSans-34" d="M 2419 4116 
L 825 1625 
L 2419 1625 
L 2419 4116 
z
M 2253 4666 
L 3047 4666 
L 3047 1625 
L 3713 1625 
L 3713 1100 
L 3047 1100 
L 3047 0 
L 2419 0 
L 2419 1100 
L 313 1100 
L 313 1709 
L 2253 4666 
z
" transform="scale(0.015625)"/>
     </defs>
     <use xlink:href="#DejaVuSans-34"/>
    </g>
   </g>
   <g id="text_24">
    <!-- 5 -->
    <g transform="translate(182.266027 132.1407) scale(0.1 -0.1)">
     <use xlink:href="#DejaVuSans-35"/>
    </g>
   </g>
   <g id="text_25">
    <!-- 6 -->
    <g transform="translate(173.9286 163.2564) scale(0.1 -0.1)">
     <defs>
      <path id="DejaVuSans-36" d="M 2113 2584 
Q 1688 2584 1439 2293 
Q 1191 2003 1191 1497 
Q 1191 994 1439 701 
Q 1688 409 2113 409 
Q 2538 409 2786 701 
Q 3034 994 3034 1497 
Q 3034 2003 2786 2293 
Q 2538 2584 2113 2584 
z
M 3366 4563 
L 3366 3988 
Q 3128 4100 2886 4159 
Q 2644 4219 2406 4219 
Q 1781 4219 1451 3797 
Q 1122 3375 1075 2522 
Q 1259 2794 1537 2939 
Q 1816 3084 2150 3084 
Q 2853 3084 3261 2657 
Q 3669 2231 3669 1497 
Q 3669 778 3244 343 
Q 2819 -91 2113 -91 
Q 1303 -91 875 529 
Q 447 1150 447 2328 
Q 447 3434 972 4092 
Q 1497 4750 2381 4750 
Q 2619 4750 2861 4703 
Q 3103 4656 3366 4563 
z
" transform="scale(0.015625)"/>
     </defs>
     <use xlink:href="#DejaVuSans-36"/>
    </g>
   </g>
   <g id="text_26">
    <!-- 7 -->
    <g transform="translate(182.266027 194.3721) scale(0.1 -0.1)">
     <defs>
      <path id="DejaVuSans-37" d="M 525 4666 
L 3525 4666 
L 3525 4397 
L 1831 0 
L 1172 0 
L 2766 4134 
L 525 4134 
L 525 4666 
z
" transform="scale(0.015625)"/>
     </defs>
     <use xlink:href="#DejaVuSans-37"/>
    </g>
   </g>
   <g id="text_27">
    <!-- 8 -->
    <g transform="translate(205.0443 217.150373) scale(0.1 -0.1)">
     <defs>
      <path id="DejaVuSans-38" d="M 2034 2216 
Q 1584 2216 1326 1975 
Q 1069 1734 1069 1313 
Q 1069 891 1326 650 
Q 1584 409 2034 409 
Q 2484 409 2743 651 
Q 3003 894 3003 1313 
Q 3003 1734 2745 1975 
Q 2488 2216 2034 2216 
z
M 1403 2484 
Q 997 2584 770 2862 
Q 544 3141 544 3541 
Q 544 4100 942 4425 
Q 1341 4750 2034 4750 
Q 2731 4750 3128 4425 
Q 3525 4100 3525 3541 
Q 3525 3141 3298 2862 
Q 3072 2584 2669 2484 
Q 3125 2378 3379 2068 
Q 3634 1759 3634 1313 
Q 3634 634 3220 271 
Q 2806 -91 2034 -91 
Q 1263 -91 848 271 
Q 434 634 434 1313 
Q 434 1759 690 2068 
Q 947 2378 1403 2484 
z
M 1172 3481 
Q 1172 3119 1398 2916 
Q 1625 2713 2034 2713 
Q 2441 2713 2670 2916 
Q 2900 3119 2900 3481 
Q 2900 3844 2670 4047 
Q 2441 4250 2034 4250 
Q 1625 4250 1398 4047 
Q 1172 3844 1172 3481 
z
" transform="scale(0.015625)"/>
     </defs>
     <use xlink:href="#DejaVuSans-38"/>
    </g>
   </g>
   <g id="text_28">
    <!-- 9 -->
    <g transform="translate(236.16 225.4878) scale(0.1 -0.1)">
     <defs>
      <path id="DejaVuSans-39" d="M 703 97 
L 703 672 
Q 941 559 1184 500 
Q 1428 441 1663 441 
Q 2288 441 2617 861 
Q 2947 1281 2994 2138 
Q 2813 1869 2534 1725 
Q 2256 1581 1919 1581 
Q 1219 1581 811 2004 
Q 403 2428 403 3163 
Q 403 3881 828 4315 
Q 1253 4750 1959 4750 
Q 2769 4750 3195 4129 
Q 3622 3509 3622 2328 
Q 3622 1225 3098 567 
Q 2575 -91 1691 -91 
Q 1453 -91 1209 -44 
Q 966 3 703 97 
z
M 1959 2075 
Q 2384 2075 2632 2365 
Q 2881 2656 2881 3163 
Q 2881 3666 2632 3958 
Q 2384 4250 1959 4250 
Q 1534 4250 1286 3958 
Q 1038 3666 1038 3163 
Q 1038 2656 1286 2365 
Q 1534 2075 1959 2075 
z
" transform="scale(0.015625)"/>
     </defs>
     <use xlink:href="#DejaVuSans-39"/>
    </g>
   </g>
   <g id="text_29">
    <!-- 10 -->
    <g transform="translate(267.2757 217.150373) scale(0.1 -0.1)">
     <use xlink:href="#DejaVuSans-31"/>
     <use xlink:href="#DejaVuSans-30" x="63.623047"/>
    </g>
   </g>
   <g id="text_30">
    <!-- 11 -->
    <g transform="translate(290.053973 194.3721) scale(0.1 -0.1)">
     <use xlink:href="#DejaVuSans-31"/>
     <use xlink:href="#DejaVuSans-31" x="63.623047"/>
    </g>
   </g>
   <g id="legend_1">
    <g id="patch_7">
     <path d="M 367.6228 222.9311 
L 458.50405 222.9311 
Q 460.50405 222.9311 460.50405 220.9311 
L 460.50405 45.7936 
Q 460.50405 43.7936 458.50405 43.7936 
L 367.6228 43.7936 
Q 365.6228 43.7936 365.6228 45.7936 
L 365.6228 220.9311 
Q 365.6228 222.9311 367.6228 222.9311 
z
" style="fill: #ffffff; opacity: 0.8; stroke: #cccccc; stroke-linejoin: miter"/>
    </g>
    <g id="patch_8">
     <path d="M 369.6228 55.392038 
L 389.6228 55.392038 
L 389.6228 48.392038 
L 369.6228 48.392038 
z
" style="fill: #00224e"/>
    </g>
    <g id="text_31">
     <!-- 0: (0, 1) -->
     <g transform="translate(397.6228 55.392038) scale(0.1 -0.1)">
      <defs>
       <path id="DejaVuSans-3a" d="M 750 794 
L 1409 794 
L 1409 0 
L 750 0 
L 750 794 
z
M 750 3309 
L 1409 3309 
L 1409 2516 
L 750 2516 
L 750 3309 
z
" transform="scale(0.015625)"/>
       <path id="DejaVuSans-20" transform="scale(0.015625)"/>
       <path id="DejaVuSans-28" d="M 1984 4856 
Q 1566 4138 1362 3434 
Q 1159 2731 1159 2009 
Q 1159 1288 1364 580 
Q 1569 -128 1984 -844 
L 1484 -844 
Q 1016 -109 783 600 
Q 550 1309 550 2009 
Q 550 2706 781 3412 
Q 1013 4119 1484 4856 
L 1984 4856 
z
" transform="scale(0.015625)"/>
       <path id="DejaVuSans-2c" d="M 750 794 
L 1409 794 
L 1409 256 
L 897 -744 
L 494 -744 
L 750 256 
L 750 794 
z
" transform="scale(0.015625)"/>
       <path id="DejaVuSans-29" d="M 513 4856 
L 1013 4856 
Q 1481 4119 1714 3412 
Q 1947 2706 1947 2009 
Q 1947 1309 1714 600 
Q 1481 -109 1013 -844 
L 513 -844 
Q 928 -128 1133 580 
Q 1338 1288 1338 2009 
Q 1338 2731 1133 3434 
Q 928 4138 513 4856 
z
" transform="scale(0.015625)"/>
      </defs>
      <use xlink:href="#DejaVuSans-30"/>
      <use xlink:href="#DejaVuSans-3a" x="63.623047"/>
      <use xlink:href="#DejaVuSans-20" x="97.314453"/>
      <use xlink:href="#DejaVuSans-28" x="129.101562"/>
      <use xlink:href="#DejaVuSans-30" x="168.115234"/>
      <use xlink:href="#DejaVuSans-2c" x="231.738281"/>
      <use xlink:href="#DejaVuSans-20" x="263.525391"/>
      <use xlink:href="#DejaVuSans-31" x="295.3125"/>
      <use xlink:href="#DejaVuSans-29" x="358.935547"/>
     </g>
    </g>
    <g id="patch_9">
     <path d="M 369.6228 70.070163 
L 389.6228 70.070163 
L 389.6228 63.070163 
L 369.6228 63.070163 
z
" style="fill: #013271"/>
    </g>
    <g id="text_32">
     <!-- 1: (1, 2) -->
     <g transform="translate(397.6228 70.070163) scale(0.1 -0.1)">
      <use xlink:href="#DejaVuSans-31"/>
      <use xlink:href="#DejaVuSans-3a" x="63.623047"/>
      <use xlink:href="#DejaVuSans-20" x="97.314453"/>
      <use xlink:href="#DejaVuSans-28" x="129.101562"/>
      <use xlink:href="#DejaVuSans-31" x="168.115234"/>
      <use xlink:href="#DejaVuSans-2c" x="231.738281"/>
      <use xlink:href="#DejaVuSans-20" x="263.525391"/>
      <use xlink:href="#DejaVuSans-32" x="295.3125"/>
      <use xlink:href="#DejaVuSans-29" x="358.935547"/>
     </g>
    </g>
    <g id="patch_10">
     <path d="M 369.6228 84.748288 
L 389.6228 84.748288 
L 389.6228 77.748288 
L 369.6228 77.748288 
z
" style="fill: #2f426d"/>
    </g>
    <g id="text_33">
     <!-- 2: (2, 3) -->
     <g transform="translate(397.6228 84.748288) scale(0.1 -0.1)">
      <use xlink:href="#DejaVuSans-32"/>
      <use xlink:href="#DejaVuSans-3a" x="63.623047"/>
      <use xlink:href="#DejaVuSans-20" x="97.314453"/>
      <use xlink:href="#DejaVuSans-28" x="129.101562"/>
      <use xlink:href="#DejaVuSans-32" x="168.115234"/>
      <use xlink:href="#DejaVuSans-2c" x="231.738281"/>
      <use xlink:href="#DejaVuSans-20" x="263.525391"/>
      <use xlink:href="#DejaVuSans-33" x="295.3125"/>
      <use xlink:href="#DejaVuSans-29" x="358.935547"/>
     </g>
    </g>
    <g id="patch_11">
     <path d="M 369.6228 99.426413 
L 389.6228 99.426413 
L 389.6228 92.426413 
L 369.6228 92.426413 
z
" style="fill: #48526c"/>
    </g>
    <g id="text_34">
     <!-- 3: (3, 4) -->
     <g transform="translate(397.6228 99.426413) scale(0.1 -0.1)">
      <use xlink:href="#DejaVuSans-33"/>
      <use xlink:href="#DejaVuSans-3a" x="63.623047"/>
      <use xlink:href="#DejaVuSans-20" x="97.314453"/>
      <use xlink:href="#DejaVuSans-28" x="129.101562"/>
      <use xlink:href="#DejaVuSans-33" x="168.115234"/>
      <use xlink:href="#DejaVuSans-2c" x="231.738281"/>
      <use xlink:href="#DejaVuSans-20" x="263.525391"/>
      <use xlink:href="#DejaVuSans-34" x="295.3125"/>
      <use xlink:href="#DejaVuSans-29" x="358.935547"/>
     </g>
    </g>
    <g id="patch_12">
     <path d="M 369.6228 114.104538 
L 389.6228 114.104538 
L 389.6228 107.104538 
L 369.6228 107.104538 
z
" style="fill: #5e636f"/>
    </g>
    <g id="text_35">
     <!-- 4: (4, 5) -->
     <g transform="translate(397.6228 114.104538) scale(0.1 -0.1)">
      <use xlink:href="#DejaVuSans-34"/>
      <use xlink:href="#DejaVuSans-3a" x="63.623047"/>
      <use xlink:href="#DejaVuSans-20" x="97.314453"/>
      <use xlink:href="#DejaVuSans-28" x="129.101562"/>
      <use xlink:href="#DejaVuSans-34" x="168.115234"/>
      <use xlink:href="#DejaVuSans-2c" x="231.738281"/>
      <use xlink:href="#DejaVuSans-20" x="263.525391"/>
      <use xlink:href="#DejaVuSans-35" x="295.3125"/>
      <use xlink:href="#DejaVuSans-29" x="358.935547"/>
     </g>
    </g>
    <g id="patch_13">
     <path d="M 369.6228 128.782663 
L 389.6228 128.782663 
L 389.6228 121.782663 
L 369.6228 121.782663 
z
" style="fill: #727374"/>
    </g>
    <g id="text_36">
     <!-- 5: (5, 6) -->
     <g transform="translate(397.6228 128.782663) scale(0.1 -0.1)">
      <use xlink:href="#DejaVuSans-35"/>
      <use xlink:href="#DejaVuSans-3a" x="63.623047"/>
      <use xlink:href="#DejaVuSans-20" x="97.314453"/>
      <use xlink:href="#DejaVuSans-28" x="129.101562"/>
      <use xlink:href="#DejaVuSans-35" x="168.115234"/>
      <use xlink:href="#DejaVuSans-2c" x="231.738281"/>
      <use xlink:href="#DejaVuSans-20" x="263.525391"/>
      <use xlink:href="#DejaVuSans-36" x="295.3125"/>
      <use xlink:href="#DejaVuSans-29" x="358.935547"/>
     </g>
    </g>
    <g id="patch_14">
     <path d="M 369.6228 143.460788 
L 389.6228 143.460788 
L 389.6228 136.460788 
L 369.6228 136.460788 
z
" style="fill: #878478"/>
    </g>
    <g id="text_37">
     <!-- 6: (6, 7) -->
     <g transform="translate(397.6228 143.460788) scale(0.1 -0.1)">
      <use xlink:href="#DejaVuSans-36"/>
      <use xlink:href="#DejaVuSans-3a" x="63.623047"/>
      <use xlink:href="#DejaVuSans-20" x="97.314453"/>
      <use xlink:href="#DejaVuSans-28" x="129.101562"/>
      <use xlink:href="#DejaVuSans-36" x="168.115234"/>
      <use xlink:href="#DejaVuSans-2c" x="231.738281"/>
      <use xlink:href="#DejaVuSans-20" x="263.525391"/>
      <use xlink:href="#DejaVuSans-37" x="295.3125"/>
      <use xlink:href="#DejaVuSans-29" x="358.935547"/>
     </g>
    </g>
    <g id="patch_15">
     <path d="M 369.6228 158.138913 
L 389.6228 158.138913 
L 389.6228 151.138913 
L 369.6228 151.138913 
z
" style="fill: #9d9576"/>
    </g>
    <g id="text_38">
     <!-- 7: (7, 8) -->
     <g transform="translate(397.6228 158.138913) scale(0.1 -0.1)">
      <use xlink:href="#DejaVuSans-37"/>
      <use xlink:href="#DejaVuSans-3a" x="63.623047"/>
      <use xlink:href="#DejaVuSans-20" x="97.314453"/>
      <use xlink:href="#DejaVuSans-28" x="129.101562"/>
      <use xlink:href="#DejaVuSans-37" x="168.115234"/>
      <use xlink:href="#DejaVuSans-2c" x="231.738281"/>
      <use xlink:href="#DejaVuSans-20" x="263.525391"/>
      <use xlink:href="#DejaVuSans-38" x="295.3125"/>
      <use xlink:href="#DejaVuSans-29" x="358.935547"/>
     </g>
    </g>
    <g id="patch_16">
     <path d="M 369.6228 172.817038 
L 389.6228 172.817038 
L 389.6228 165.817038 
L 369.6228 165.817038 
z
" style="fill: #b6a96f"/>
    </g>
    <g id="text_39">
     <!-- 8: (8, 9) -->
     <g transform="translate(397.6228 172.817038) scale(0.1 -0.1)">
      <use xlink:href="#DejaVuSans-38"/>
      <use xlink:href="#DejaVuSans-3a" x="63.623047"/>
      <use xlink:href="#DejaVuSans-20" x="97.314453"/>
      <use xlink:href="#DejaVuSans-28" x="129.101562"/>
      <use xlink:href="#DejaVuSans-38" x="168.115234"/>
      <use xlink:href="#DejaVuSans-2c" x="231.738281"/>
      <use xlink:href="#DejaVuSans-20" x="263.525391"/>
      <use xlink:href="#DejaVuSans-39" x="295.3125"/>
      <use xlink:href="#DejaVuSans-29" x="358.935547"/>
     </g>
    </g>
    <g id="patch_17">
     <path d="M 369.6228 187.495162 
L 389.6228 187.495162 
L 389.6228 180.495162 
L 369.6228 180.495162 
z
" style="fill: #cebc63"/>
    </g>
    <g id="text_40">
     <!-- 9: (9, 10) -->
     <g transform="translate(397.6228 187.495162) scale(0.1 -0.1)">
      <use xlink:href="#DejaVuSans-39"/>
      <use xlink:href="#DejaVuSans-3a" x="63.623047"/>
      <use xlink:href="#DejaVuSans-20" x="97.314453"/>
      <use xlink:href="#DejaVuSans-28" x="129.101562"/>
      <use xlink:href="#DejaVuSans-39" x="168.115234"/>
      <use xlink:href="#DejaVuSans-2c" x="231.738281"/>
      <use xlink:href="#DejaVuSans-20" x="263.525391"/>
      <use xlink:href="#DejaVuSans-31" x="295.3125"/>
      <use xlink:href="#DejaVuSans-30" x="358.935547"/>
      <use xlink:href="#DejaVuSans-29" x="422.558594"/>
     </g>
    </g>
    <g id="patch_18">
     <path d="M 369.6228 202.173287 
L 389.6228 202.173287 
L 389.6228 195.173287 
L 369.6228 195.173287 
z
" style="fill: #e7d150"/>
    </g>
    <g id="text_41">
     <!-- 10: (10, 11) -->
     <g transform="translate(397.6228 202.173287) scale(0.1 -0.1)">
      <use xlink:href="#DejaVuSans-31"/>
      <use xlink:href="#DejaVuSans-30" x="63.623047"/>
      <use xlink:href="#DejaVuSans-3a" x="127.246094"/>
      <use xlink:href="#DejaVuSans-20" x="160.9375"/>
      <use xlink:href="#DejaVuSans-28" x="192.724609"/>
      <use xlink:href="#DejaVuSans-31" x="231.738281"/>
      <use xlink:href="#DejaVuSans-30" x="295.361328"/>
      <use xlink:href="#DejaVuSans-2c" x="358.984375"/>
      <use xlink:href="#DejaVuSans-20" x="390.771484"/>
      <use xlink:href="#DejaVuSans-31" x="422.558594"/>
      <use xlink:href="#DejaVuSans-31" x="486.181641"/>
      <use xlink:href="#DejaVuSans-29" x="549.804688"/>
     </g>
    </g>
    <g id="patch_19">
     <path d="M 369.6228 216.851412 
L 389.6228 216.851412 
L 389.6228 209.851412 
L 369.6228 209.851412 
z
" style="fill: #fee838"/>
    </g>
    <g id="text_42">
     <!-- 11: (11, 0) -->
     <g transform="translate(397.6228 216.851412) scale(0.1 -0.1)">
      <use xlink:href="#DejaVuSans-31"/>
      <use xlink:href="#DejaVuSans-31" x="63.623047"/>
      <use xlink:href="#DejaVuSans-3a" x="127.246094"/>
      <use xlink:href="#DejaVuSans-20" x="160.9375"/>
      <use xlink:href="#DejaVuSans-28" x="192.724609"/>
      <use xlink:href="#DejaVuSans-31" x="231.738281"/>
      <use xlink:href="#DejaVuSans-31" x="295.361328"/>
      <use xlink:href="#DejaVuSans-2c" x="358.984375"/>
      <use xlink:href="#DejaVuSans-20" x="390.771484"/>
      <use xlink:href="#DejaVuSans-30" x="422.558594"/>
      <use xlink:href="#DejaVuSans-29" x="486.181641"/>
     </g>
    </g>
   </g>
  </g>
 </g>
 <defs>
  <clipPath id="paea967dc3e">
   <rect x="111.6972" y="38.7936" width="248.9256" height="248.9256"/>
  </clipPath>
 </defs>
</svg>
